<?xml version="1.0" standalone="no"?>
<!DOCTYPE svg PUBLIC "-//W3C//DTD SVG 1.1//EN" "http://www.w3.org/Graphics/SVG/1.1/DTD/svg11.dtd" >
<svg xmlns="http://www.w3.org/2000/svg">
  <metadata>Created by iconfont</metadata>
  <defs>
  <font id="iconfont" horiz-adv-x="1024">
    <font-face
      font-family="iconfont"
      font-weight="400"
      font-stretch="normal"
      units-per-em="1024"
      ascent="896"
      descent="-128"
    />
      <missing-glyph />
      
      <glyph glyph-name="arrow2" unicode="&#58982;" d="M1014.016 404.394667l-195.072 186.496a28.16 28.16 0 0 1-38.912 0l-2.133333-2.005334a28.16 28.16 0 0 1-0.853334-39.808l0.853334-0.896L949.632 384l-171.648-164.181333a28.16 28.16 0 0 1 0-40.704l2.133333-2.005334a28.16 28.16 0 0 1 38.912 0l195.072 186.496a28.16 28.16 0 0 1 0.853334 39.808l-0.938667 0.981334z"  horiz-adv-x="1024" />
      
      <glyph glyph-name="address" unicode="&#58983;" d="M444.416 450.304a95.829333 95.829333 0 0 1 135.168 0 94.72 94.72 0 0 1 0 134.4 95.829333 95.829333 0 0 1-135.168 0 94.72 94.72 0 0 1 0-134.4zM512.042667 810.666667c156.16 0 282.752-125.866667 282.752-281.173334-1.962667-250.026667-228.010667-393.301333-284.714667-395.946666-49.066667-8.832-283.648 166.272-280.746667 395.946666C229.333333 684.8 355.84 810.666667 512 810.666667zM512 684.586667c-92.629333 0-167.978667-75.008-167.978667-167.125334 0-92.074667 75.349333-166.997333 167.978667-166.997333s167.978667 74.965333 167.978667 167.082667S604.629333 684.586667 512 684.586667zM509.184 65.450667c-112 20.266667-219.946667 136.149333-264.874667 189.994666C122.453333 225.877333 42.666667 176.768 42.666667 121.045333 42.666667 30.592 252.757333-42.666667 512-42.666667c259.2 0 469.333333 73.301333 469.333333 163.712 0 54.954667-77.696 103.552-196.778666 133.248-66.517333-74.112-172.074667-172.629333-275.370667-188.842666z"  horiz-adv-x="1024" />
      
      <glyph glyph-name="feedback" unicode="&#58984;" d="M307.2-12.8a140.8 140.8 0 0 0-140.586667 132.821333L166.4 128V640a140.8 140.8 0 0 0 132.821333 140.586667L307.2 780.8h409.6a140.8 140.8 0 0 0 140.586667-132.821333L857.6 640v-88.746667a38.4 38.4 0 0 0-76.501333-4.821333L780.8 551.253333V640a64 64 0 0 1-57.856 63.701333L716.8 704H307.2a64 64 0 0 1-63.701333-57.856L243.2 640v-512a64 64 0 0 1 57.856-63.701333l6.144-0.298667h39.381333a38.4 38.4 0 0 0 4.821334-76.501333l-4.821334-0.298667H307.2zM861.397333 454.314667a115.2 115.2 0 0 1-162.944 0l-233.514666-233.514667a89.6 89.6 0 0 1-26.112-58.624l-4.437334-85.589333 0.042667-3.2a48.64 48.64 0 0 1 51.114667-46.037334l83.669333 4.437334a89.6 89.6 0 0 1 58.666667 26.112l233.514666 233.514666a115.2 115.2 0 0 1 0 162.901334z m-54.314666-54.314667a38.4 38.4 0 0 0 0-54.314667l-233.514667-233.472-2.474667-1.92a12.8 12.8 0 0 0-5.888-1.834666l-52.394666-2.688 2.730666 52.352a12.8 12.8 0 0 0 3.712 8.362666l233.514667 233.514667a38.4 38.4 0 0 0 54.314667 0zM307.2 640m38.4 0l128 0q38.4 0 38.4-38.4l0 0q0-38.4-38.4-38.4l-128 0q-38.4 0-38.4 38.4l0 0q0 38.4 38.4 38.4ZM307.2 486.4m38.4 0l128 0q38.4 0 38.4-38.4l0 0q0-38.4-38.4-38.4l-128 0q-38.4 0-38.4 38.4l0 0q0 38.4 38.4 38.4Z"  horiz-adv-x="1024" />
      
      <glyph glyph-name="ptzz" unicode="&#58985;" d="M768 768a85.333333 85.333333 0 0 0 85.333333-85.333333v-426.666667H170.666667V682.666667a85.333333 85.333333 0 0 0 85.333333 85.333333h512z m-74.666667-256h-362.666666a32 32 0 0 1 0-64h362.666666a32 32 0 1 1 0 64z m0 128h-362.666666a32 32 0 0 1 0-64h362.666666a32 32 0 1 1 0 64zM341.333333 277.333333a170.666667 106.666667 0 1 1 341.333334 0 170.666667 106.666667 0 1 1-341.333334 0ZM853.333333 213.333333v-128a85.333333 85.333333 0 0 0-85.333333-85.333333H256a85.333333 85.333333 0 0 0-85.333333 85.333333v128h140.16c29.269333-49.706667 108.288-85.333333 201.173333-85.333333s171.904 35.626667 201.173333 85.333333H853.333333z"  horiz-adv-x="1024" />
      
      <glyph glyph-name="heart" unicode="&#58986;" d="M684.8 704C801.450667 704 896 612.181333 896 498.901333c0-205.098667-249.6-391.509333-384-434.901333-134.4 43.392-384 229.802667-384 434.901333C128 612.181333 222.549333 704 339.2 704c71.424 0 134.570667-34.432 172.8-87.125333A212.864 212.864 0 0 0 684.8 704z m0-96c-35.925333 0-68.693333-15.573333-90.282667-41.386667l-4.821333-6.101333L512 453.333333l-77.696 107.178667A116.864 116.864 0 0 1 339.2 608c-64.256 0-115.2-49.493333-115.2-109.098667 0-115.285333 144.554667-267.264 278.656-328.362666L512 166.4l9.344 4.096c130.858667 59.605333 271.616 205.738667 278.4 319.872l0.256 8.533333c0 59.562667-50.944 109.056-115.2 109.056z"  horiz-adv-x="1024" />
      
      <glyph glyph-name="tips" unicode="&#58987;" d="M512 768a384 384 0 1 0 0-768 384 384 0 0 0 0 768z m0-64a320 320 0 1 1 0-640 320 320 0 0 1 0 640zM464 576m48 0l0 0q48 0 48-48l0-160q0-48-48-48l0 0q-48 0-48 48l0 160q0 48 48 48ZM464 256m48 0l0 0q48 0 48-48l0 0q0-48-48-48l0 0q-48 0-48 48l0 0q0 48 48 48Z"  horiz-adv-x="1024" />
      
      <glyph glyph-name="dfh" unicode="&#58988;" d="M914.304 585.130667l36.565333-54.826667v-438.869333a109.696 109.696 0 0 0-109.738666-109.738667H182.869333a109.696 109.696 0 0 0-109.738666 109.738667V530.304l36.565333 54.826667H914.346667zM884.906667 530.346667H139.050667L128 513.706667v-422.272c0-28.416 21.589333-51.754667 49.237333-54.613334l5.632-0.256h658.261334c28.416 0 51.797333 21.589333 54.613333 49.237334l0.256 5.632V513.664l-11.093333 16.64zM771.712 786.304c24.874667 0 47.872-12.629333 61.269333-33.237333l3.413334-5.802667 114.474666-216.96H73.130667l114.474666 216.96a73.130667 73.130667 0 0 0 57.941334 38.698667l6.741333 0.341333h519.424z m0-54.869333H252.288a18.304 18.304 0 0 1-14.336-6.954667l-1.834667-2.816-72.021333-136.490667h695.765333l-71.978666 136.533334a18.304 18.304 0 0 1-12.8 9.386666l-3.370667 0.341334zM658.304 585.130667v-379.690667a36.565333 36.565333 0 0 0-52.906667-32.682667l-77.056 38.485334a36.565333 36.565333 0 0 1-32.682666 0l-77.013334-38.485334a36.565333 36.565333 0 0 0-52.906666 32.682667v379.733333h292.565333zM603.392 530.346667H420.565333v-295.210667l50.56 25.216a91.434667 91.434667 0 0 0 74.666667 3.2l7.082667-3.2 50.517333-25.216V530.304zM603.434667 786.304l54.869333-256H365.653333l54.869334 256h182.869333z m-44.373334-54.869333h-94.165333l-31.36-146.261334h156.885333l-31.36 146.261334z"  horiz-adv-x="1024" />
      
      <glyph glyph-name="wepay" unicode="&#58989;" d="M383.018667 264.533333a28.16 28.16 0 0 0-24.746667 14.250667l-2.005333 3.797333-78.08 163.754667c-0.981333 1.962667-0.981333 3.797333-0.981334 5.717333 0 7.637333 5.930667 13.354667 13.866667 13.354667 2.986667 0 5.930667-0.938667 8.874667-2.858667l91.989333-62.848c6.869333-3.754667 14.805333-6.613333 23.68-6.613333 4.992 0 9.856 0.896 14.848 2.858667l431.232 184.661333C784.554667 668.16 657.066667 725.333333 512.554667 725.333333 277.205333 725.333333 85.333333 572.032 85.333333 382.677333c0-102.784 57.344-196.053333 147.328-258.901333a27.818667 27.818667 0 0 0 11.861334-21.930667 25.386667 25.386667 0 0 0-2.005334-8.533333c-6.912-25.685333-18.858667-67.626667-18.858666-69.461333a33.664 33.664 0 0 1-2.005334-10.496c0-7.68 5.973333-13.354667 13.866667-13.354667 2.986667 0 5.930667 0.938667 7.936 2.858667l92.928 52.352c6.869333 3.754667 14.805333 6.613333 22.741333 6.613333 3.925333 0 8.917333-0.896 12.8-1.92 43.52-12.373333 91.050667-19.072 139.52-19.072C746.794667 40.832 938.666667 194.133333 938.666667 383.488c0 57.173333-17.792 111.36-48.469334 159.018667L398.805333 269.312l-2.986666-1.92a27.818667 27.818667 0 0 0-12.8-2.858667z"  horiz-adv-x="1024" />
      
      <glyph glyph-name="offbeifen" unicode="&#58990;" d="M512 810.666667c235.648 0 426.666667-191.018667 426.666667-426.666667s-191.018667-426.666667-426.666667-426.666667S85.333333 148.352 85.333333 384 276.352 810.666667 512 810.666667z m0-42.666667a384 384 0 0 1-384-384 384 384 0 0 1 384-384 384 384 0 0 1 384 384 384 384 0 0 1-384 384z"  horiz-adv-x="1024" />
      
      <glyph glyph-name="search" unicode="&#58991;" d="M474.24 816a394.24 394.24 0 1 1 0-788.48 394.24 394.24 0 0 1 0 788.48z m0-96a298.24 298.24 0 1 0 0-596.48 298.24 298.24 0 0 0 0 596.48zM689.237333 206.762667a48 48 0 0 0 63.701334 3.754666l4.181333-3.754666 172.8-172.8a48 48 0 0 0-63.658667-71.637334l-4.181333 3.754667-172.842667 172.8a48 48 0 0 0 0 67.882667z"  horiz-adv-x="1024" />
      
      <glyph glyph-name="upload" unicode="&#58992;" d="M522.666667 896a32 32 0 0 0 32-32l-0.042667-447.957333L992 416a32 32 0 1 0 0-64l-437.376 0.042667 0.042667-448.042667a32 32 0 1 0-64 0l-0.042667 448.042667L32 352a32 32 0 1 0 0 64l458.624 0.042667L490.666667 864A32 32 0 0 0 522.666667 896z"  horiz-adv-x="1034" />
      
      <glyph glyph-name="open" unicode="&#58993;" d="M821.333333 682.666667a32 32 0 0 0 0-64H202.666667a32 32 0 0 0 0 64h618.666666zM821.333333 512a32 32 0 0 0 0-64H202.666667a32 32 0 0 0 0 64h618.666666zM437.333333 341.333333a32 32 0 1 0 0-64h-234.666666a32 32 0 1 0 0 64h234.666666zM437.333333 170.666667a32 32 0 1 0 0-64h-234.666666a32 32 0 1 0 0 64h234.666666zM558.378667 325.717333a32 32 0 0 0 41.898666-4.010666l2.773334-3.370667 87.338666-121.813333 87.466667 121.813333a32 32 0 0 0 40.96 9.642667l3.669333-2.261334a32 32 0 0 0 9.642667-40.96l-2.304-3.712-113.408-158.122666a32 32 0 0 0-49.28-3.328l-2.730667 3.328-113.365333 158.122666a32 32 0 0 0 3.968 41.898667l3.370667 2.773333z"  horiz-adv-x="1024" />
      
      <glyph glyph-name="tick1" unicode="&#58994;" d="M512 742.4a358.4 358.4 0 1 0 0-716.8 358.4 358.4 0 0 0 0 716.8z m0-76.8a281.6 281.6 0 1 1 0-563.2 281.6 281.6 0 0 1 0 563.2zM608.042667 507.733333a38.4 38.4 0 0 0 66.346666-38.442666l-2.432-4.181334-153.6-230.4a38.4 38.4 0 0 0-55.253333-9.216l-3.84 3.370667-102.4 102.4a38.4 38.4 0 0 0 50.346667 57.728l3.925333-3.413333 69.290667-69.290667 127.616 191.402667z"  horiz-adv-x="1024" />
      
      <glyph glyph-name="arrow3" unicode="&#58995;" d="M491.605333 265.984l-186.496 195.072a28.16 28.16 0 0 0 0 38.912l2.005334 2.133333a28.16 28.16 0 0 0 39.808 0.853334l0.896-0.853334L512 330.368l164.181333 171.648a28.16 28.16 0 0 0 40.704 0l2.005334-2.133333a28.16 28.16 0 0 0 0-38.912l-186.496-195.072a28.16 28.16 0 0 0-39.808-0.853334l-0.981334 0.938667z"  horiz-adv-x="1024" />
      
      <glyph glyph-name="okbeifen" unicode="&#58996;" d="M640 810.666667a42.666667 42.666667 0 0 0 42.666667-42.666667v-85.333333a42.666667 42.666667 0 0 0-42.666667-42.666667H384a42.666667 42.666667 0 0 0-42.666667 42.666667V768a42.666667 42.666667 0 0 0 42.666667 42.666667h256zM277.333333 725.333333v-64a85.333333 85.333333 0 0 1 78.933334-85.12l6.4-0.213333h298.666666a85.333333 85.333333 0 0 1 85.12 78.933333l0.213334 6.4V725.333333H810.666667a85.333333 85.333333 0 0 0 85.333333-85.333333v-597.333333a85.333333 85.333333 0 0 0-85.333333-85.333334H213.333333a85.333333 85.333333 0 0 0-85.333333 85.333334V640a85.333333 85.333333 0 0 0 85.333333 85.333333h64z m147.626667-313.898666a32 32 0 0 1-42.496-47.701334l84.181333-85.845333L382.464 192a32 32 0 0 1 42.496-47.701333l3.242667 2.901333 84.010666 85.717333 83.84-83.797333a32 32 0 0 1 41.984-2.858667l3.242667 2.858667a32 32 0 0 1 2.858667 41.984l-2.858667 3.285333-83.498667 83.498667 83.498667 83.498667 2.858667 3.242666a32 32 0 0 1-2.858667 41.984l-3.242667 2.858667a32 32 0 0 1-41.984-2.858667l-83.84-83.754666-84.053333 85.674666z"  horiz-adv-x="1024" />
      
      <glyph glyph-name="ok" unicode="&#58997;" d="M640 810.666667a42.666667 42.666667 0 0 0 42.666667-42.666667v-85.333333a42.666667 42.666667 0 0 0-42.666667-42.666667H384a42.666667 42.666667 0 0 0-42.666667 42.666667V768a42.666667 42.666667 0 0 0 42.666667 42.666667h256zM277.333333 725.333333v-64a85.333333 85.333333 0 0 1 78.933334-85.12l6.4-0.213333h298.666666a85.333333 85.333333 0 0 1 85.12 78.933333l0.213334 6.4V725.333333H810.666667a85.333333 85.333333 0 0 0 85.333333-85.333333v-597.333333a85.333333 85.333333 0 0 0-85.333333-85.333334H213.333333a85.333333 85.333333 0 0 0-85.333333 85.333334V640a85.333333 85.333333 0 0 0 85.333333 85.333333h64z m421.461334-293.418666a32 32 0 0 1-41.984-2.858667l-188.586667-188.586667-82.944 82.986667-3.242667 2.858667a32 32 0 0 1-41.984-48.128l105.6-105.6 3.242667-2.858667a32 32 0 0 1 41.984 2.858667l211.2 211.2 2.858667 3.285333a32 32 0 0 1-2.858667 41.984z"  horiz-adv-x="1024" />
      
      <glyph glyph-name="send" unicode="&#58998;" d="M938.666667 689.664A78.805333 78.805333 0 0 1 859.434667 768H164.565333A78.805333 78.805333 0 0 1 85.333333 689.664v-30.293333h853.333334v30.293333zM938.666667 585.898667v-507.562667A78.805333 78.805333 0 0 0 859.434667 0H164.565333A78.805333 78.805333 0 0 0 85.333333 78.336V585.898667h853.333334z m-190.08-49.408a33.28 33.28 0 0 1-33.493334-33.066667 191.317333 191.317333 0 0 0-191.018666-191.232h-22.528A191.36 191.36 0 0 0 310.485333 503.466667a33.28 33.28 0 0 1-33.450666 33.066666 33.28 33.28 0 0 1-33.493334-33.066666c0-141.909333 115.712-257.365333 257.92-257.365334h22.528c142.293333 0 258.005333 115.498667 258.048 257.365334a33.28 33.28 0 0 1-33.450666 33.066666z"  horiz-adv-x="1024" />
      
      <glyph glyph-name="customer" unicode="&#58999;" d="M152.021333 384a168.064 168.064 0 0 0 130.730667 163.84 232.106667 232.106667 0 0 0 458.496 0 168.064 168.064 0 0 0 0-327.68A232.106667 232.106667 0 0 0 512 23.978667a39.978667 39.978667 0 1 0 0 80 152.021333 152.021333 0 0 1 151.808 143.957333l0.213333 8.064V512a152.021333 152.021333 0 0 1-303.786666 8.106667L359.978667 512v-256c0-22.101333-17.92-40.021333-40.021334-40.021333A167.978667 167.978667 0 0 0 152.021333 384z m592 78.378667v-156.757334a87.978667 87.978667 0 0 1 0 156.757334zM232.021333 384c0-34.176 19.498667-63.829333 47.957334-78.378667v156.757334A87.978667 87.978667 0 0 1 231.978667 384z"  horiz-adv-x="1024" />
      
      <glyph glyph-name="gzh" unicode="&#59000;" d="M572.330667 806.4l81.066666-81.066667H768a85.333333 85.333333 0 0 0 85.333333-85.333333v-114.645333l81.066667-81.024a85.333333 85.333333 0 0 0 0-120.661334L853.333333 242.645333V128a85.333333 85.333333 0 0 0-85.333333-85.333333h-114.645333l-81.024-81.066667a85.333333 85.333333 0 0 0-120.661334 0l-81.066666 81.066667H256a85.333333 85.333333 0 0 0-85.333333 85.333333v114.602667l-81.066667 81.066666a85.333333 85.333333 0 0 0 0 120.661334l81.066667 81.066666V640a85.333333 85.333333 0 0 0 85.333333 85.333333h114.602667l81.066666 81.066667a85.333333 85.333333 0 0 0 120.661334 0z m126.464-289.152a32 32 0 0 1-41.984-2.858667l-188.586667-188.586666-82.944 82.986666-3.242667 2.858667a32 32 0 0 1-41.984-48.128l105.6-105.6 3.242667-2.858667a32 32 0 0 1 41.984 2.858667l211.2 211.2 2.858667 3.285333a32 32 0 0 1-2.858667 41.984z"  horiz-adv-x="1024" />
      
      <glyph glyph-name="dfj" unicode="&#59001;" d="M877.696 786.304c40.405333 0 73.173333-32.768 73.173333-73.173333v-512c0-40.362667-32.768-73.130667-73.173333-73.130667h-73.130667c-23.04 0-44.714667-10.837333-58.496-29.269333l-58.538666-77.994667a36.565333 36.565333 0 0 0-58.496 0l-58.538667 77.994667A73.130667 73.130667 0 0 1 512 128H146.304a73.130667 73.130667 0 0 0-73.173333 73.130667v512c0 40.405333 32.768 73.173333 73.173333 73.173333H877.653333z m0-54.869333H146.346667a18.304 18.304 0 0 1-18.005334-15.018667L128 713.130667v-512c0-8.96 6.485333-16.426667 15.018667-17.962667l3.285333-0.298667H512a128 128 0 0 0 97.024-44.501333l5.376-6.698667 43.861333-58.496 43.946667 58.453334a128 128 0 0 0 93.781333 50.944l8.576 0.298666h73.130667c8.96 0 16.469333 6.442667 18.005333 14.976l0.298667 3.285334v512a18.304 18.304 0 0 1-15.018667 18.005333l-3.285333 0.298667zM320 566.869333h384A27.434667 27.434667 0 0 0 704 512h-384a27.434667 27.434667 0 1 0 0 54.869333zM320 384h384a27.434667 27.434667 0 1 0 0-54.869333h-384A27.434667 27.434667 0 0 0 320 384z"  horiz-adv-x="1024" />
      
      <glyph glyph-name="lightning" unicode="&#59002;" d="M789.333333 810.666667L554.666667 512h320l-512-554.666667 106.666666 405.333334H170.666667L405.333333 810.666667z"  horiz-adv-x="1024" />
      
      <glyph glyph-name="dfk" unicode="&#59003;" d="M755.626667 736.768l13.909333-60.16h-56.32l-11.008 47.786667a54.869333 54.869333 0 0 1-60.288 42.112l-5.546667-0.981334-385.365333-88.96H146.304A109.781333 109.781333 0 0 1 40.106667 594.773333a109.738667 109.738667 0 0 0 85.034666 109.056l498.901334 115.157334a109.696 109.696 0 0 0 131.584-82.218667zM804.565333 676.565333a109.696 109.696 0 0 0 109.738667-109.696V493.653333l-54.912 0.042667V566.869333c0 28.373333-21.546667 51.754667-49.194667 54.570667l-5.632 0.256H146.346667c-28.416 0-51.797333-21.546667-54.613334-49.237333l-0.256-5.589334V128c0-28.416 21.589333-51.754667 49.237334-54.613333l5.632-0.256h658.261333c28.416 0 51.754667 21.589333 54.613333 49.28l0.256 5.589333v73.173333h54.869334V128a109.696 109.696 0 0 0-109.738667-109.696H146.346667A109.696 109.696 0 0 0 36.565333 128V566.869333A109.696 109.696 0 0 0 146.346667 676.565333h658.261333zM182.869333 530.304m27.434667 0l0 0q27.434667 0 27.434667-27.434667l0-310.826666q0-27.434667-27.434667-27.434667l0 0q-27.434667 0-27.434667 27.434667l0 310.826666q0 27.434667 27.434667 27.434667ZM914.304 493.696c40.362667 0 73.130667-32.725333 73.130667-73.130667v-146.261333c0-40.405333-32.768-73.173333-73.130667-73.173333h-219.434667a73.130667 73.130667 0 0 0-73.173333 73.173333v146.261333c0 40.405333 32.768 73.130667 73.173333 73.130667h219.434667z m0-54.826667h-219.434667a18.304 18.304 0 0 1-18.005333-15.018666l-0.298667-3.285334v-146.261333c0-8.96 6.485333-16.469333 15.018667-18.005333l3.285333-0.298667h219.434667c8.96 0 16.426667 6.485333 17.962667 15.018667l0.298666 3.285333v146.261333a18.304 18.304 0 0 1-14.976 18.005334l-3.285333 0.298666zM731.434667 384m27.434666 0l0 0q27.434667 0 27.434667-27.434667l0-18.261333q0-27.434667-27.434667-27.434667l0 0q-27.434667 0-27.434666 27.434667l0 18.261333q0 27.434667 27.434666 27.434667Z"  horiz-adv-x="1024" />
      
      <glyph glyph-name="share" unicode="&#59004;" d="M522.666667 613.248l-8.064-0.426667C223.658667 595.541333 96 384.981333 96 0c0-33.536 44.16-43.733333 59.690667-16.128l7.253333 15.701333c2.389333 4.992 5.034667 10.282667 7.978667 15.872l9.557333 17.408a602.794667 602.794667 0 0 0 72.746667 101.76l9.472 10.368c69.802667 74.666667 153.088 122.325333 251.050666 132.693334l8.917334 0.810666v-195.328a32 32 0 0 1 53.674666-23.552l384 353.365334a32 32 0 0 1 0.64 46.464l-384 374.186666A32 32 0 0 1 522.666667 810.666667v-197.418667z m64 121.557333l305.450666-297.642666-305.450666-281.045334v155.690667a32 32 0 0 1-32 32c-140.8 0-256.981333-62.890667-349.226667-166.656l-13.397333-15.530667a653.226667 653.226667 0 0 1-24.832-31.744l-1.877334-2.602666 0.085334 1.024C191.402667 412.416 311.808 550.016 554.666667 550.016a32 32 0 0 1 32 32V734.805333z"  horiz-adv-x="1024" />
      
      <glyph glyph-name="close" unicode="&#59005;" d="M821.333333 170.666667a32 32 0 0 0 0-64H202.666667a32 32 0 0 0 0 64h618.666666zM821.333333 341.333333a32 32 0 0 0 0-64H202.666667a32 32 0 0 0 0 64h618.666666zM437.333333 512a32 32 0 1 0 0-64h-234.666666a32 32 0 1 0 0 64h234.666666zM437.333333 682.666667a32 32 0 1 0 0-64h-234.666666a32 32 0 1 0 0 64h234.666666zM555.008 458.666667l3.370667-2.816a32 32 0 0 1 41.898666 4.010666l2.773334 3.370667 87.338666 121.813333 87.466667-121.813333a32 32 0 0 1 40.96-9.685333l3.669333 2.304a32 32 0 0 1 9.642667 40.96l-2.304 3.712-113.408 158.122666a32 32 0 0 1-49.28 3.328l-2.730667-3.328-113.365333-158.122666a32 32 0 0 1 3.968-41.898667z"  horiz-adv-x="1024" />
      
      <glyph glyph-name="dsh" unicode="&#59006;" d="M807.978667 597.589333l149.461333-72.021333c18.346667-8.277333 29.994667-25.557333 29.994667-44.501333v-304.512c0-27.306667-24.661333-48.554667-54.058667-48.554667h-75.093333a147.712 147.712 0 0 1-3.456 54.826667l77.738666 0.042666V476.672l-146.304 70.528 0.085334-274.218667a145.322667 145.322667 0 0 1-54.912 18.474667V553.130667c0 17.024 9.429333 32.853333 25.002666 41.898666a56.874667 56.874667 0 0 0 51.541334 2.56zM571.477333 182.869333A146.56 146.56 0 0 1 567.978667 128H419.456a147.712 147.712 0 0 1-3.498667 54.869333zM621.653333 713.130667c40.405333 0 73.173333-32.725333 73.173334-73.130667v-348.586667a145.322667 145.322667 0 0 1-54.869334-18.432V640a18.304 18.304 0 0 1-15.018666 18.005333l-3.285334 0.298667h-512a18.304 18.304 0 0 1-17.962666-15.018667L91.434667 640v-438.869333c0-8.96 6.442667-16.426667 14.976-17.962667l3.285333-0.298667h22.912A146.56 146.56 0 0 1 129.152 128H109.653333a73.130667 73.130667 0 0 0-73.130666 73.130667V640c0 40.405333 32.768 73.130667 73.130666 73.130667h512zM274.304 292.565333a146.304 146.304 0 1 0 0-292.565333 146.304 146.304 0 0 0 0 292.565333z m0-54.869333a91.434667 91.434667 0 1 1 0-182.826667 91.434667 91.434667 0 0 1 0 182.826667zM713.130667 292.565333a146.304 146.304 0 1 0 0-292.565333 146.304 146.304 0 0 0 0 292.565333z m0-54.869333a91.434667 91.434667 0 1 1 0-182.826667 91.434667 91.434667 0 0 1 0 182.826667zM146.304 603.434667m27.434667 0l164.565333 0q27.434667 0 27.434667-27.434667l0 0q0-27.434667-27.434667-27.434667l-164.565333 0q-27.434667 0-27.434667 27.434667l0 0q0 27.434667 27.434667 27.434667Z"  horiz-adv-x="1024" />
      
      <glyph glyph-name="kf" unicode="&#59007;" d="M42.666667 370.133333c0 54.741333 16.426667 109.610667 75.733333 109.610667C165.461333 647.424 326.4 765.312 512 768c185.6-2.645333 346.538667-120.533333 393.6-288.256C964.266667 475.392 981.333333 424.874667 981.333333 370.090667c0-54.741333-16.426667-109.568-75.733333-113.92a44.8 44.8 0 0 0-38.570667 15.829333 38.4 38.4 0 0 0-6.058666 38.997333v3.84c3.029333 18.133333 4.608 36.437333 4.693333 54.826667 2.816 89.6-32.725333 176.64-98.816 241.621333-66.090667 65.066667-157.226667 102.741333-253.184 104.746667H512c-95.872-2.005333-186.922667-39.637333-253.013333-104.533333-66.090667-64.938667-101.717333-151.808-98.986667-241.365334 0.085333-18.346667 1.664-36.693333 4.693333-54.826666 3.456-19.669333 0-3.84 0-3.84a38.4 38.4 0 0 0-6.058666-38.954667 44.8 44.8 0 0 0-38.613334-15.872C59.093333 260.48 42.666667 308.181333 42.666667 370.133333z m514.133333-156.202666l-1.109333-0.213334-3.157334-0.981333 4.266667 1.194667z m-4.266667-1.28a18.346667 18.346667 0 0 1 4.266667 1.365333l-2.346667-0.853333-1.92-0.554667z m42.666667-1.365334l1.28 0.981334a29.44 29.44 0 0 1 2.986667 3.072c-0.938667-0.853333-1.834667-1.834667-2.730667-2.688l-1.536-1.365334z m4.266667 3.541334l-1.92-1.194667-2.346667-1.792c1.408 1.066667 2.858667 2.005333 4.266667 2.986667zM512 21.333333a320 320 0 1 1 0 640 320 320 0 0 1 0-640z m172.842667 218.325334a206.592 206.592 0 0 0-37.930667-40.448c-24.618667-20.181333-52.650667-35.84-83.626667-43.861334a204.16 204.16 0 0 0-112.725333 2.901334 221.44 221.44 0 0 0-111.402667 81.408c-7.381333 10.410667-1.450667 25.088 8.192 31.317333 11.008 7.082667 24.362667 1.536 31.274667-8.234667l0.853333-1.152a208.768 208.768 0 0 1 28.885334-29.184l3.285333-2.645333 0.554667-0.426667a197.674667 197.674667 0 0 1 34.133333-20.522666l3.626667-1.706667 1.493333-0.597333a180.394667 180.394667 0 0 1 34.474667-9.813334l3.925333-0.682666c1.024 0 2.176-0.298667 3.157333-0.426667a184.490667 184.490667 0 0 1 42.112 0.554667l4.992 0.853333a179.584 179.584 0 0 1 32.768 9.642667 241.450667 241.450667 0 0 1 6.272 2.816 196.096 196.096 0 0 1 33.450667 20.48l0.597333 0.469333 2.986667 2.389333a214.272 214.272 0 0 1 24.576 24.106667c1.536 1.792 2.944 3.712 4.437333 5.546667l0.256 0.298666c7.424 10.496 19.541333 14.464 31.274667 8.234667 10.197333-5.418667 15.061333-21.546667 8.106667-31.317333z"  horiz-adv-x="1024" />
      
      <glyph glyph-name="receive" unicode="&#59008;" d="M591.786667 768a107.733333 107.733333 0 0 0 107.392-108.032v-70.613333h86.4c18.218667 0 35.669333-7.210667 48.64-20.138667l50.133333-50.090667 9.045333-9.045333 13.909334-13.909333 11.136-11.178667c12.928-12.885333 20.181333-30.336 20.224-48.554667v-225.92a98.432 98.432 0 0 0-98.432-98.389333h-4.821334c0 83.626667-67.626667 151.68-150.826666 151.68-83.157333 0-150.784-68.010667-150.784-151.68h-48.512c0 83.626667-67.626667 151.68-150.784 151.68-82.986667 0-150.528-67.754667-150.784-151.210667A107.733333 107.733333 0 0 0 85.333333 220.117333V660.010667A107.733333 107.733333 0 0 0 192.725333 768z m154.24-219.221333c-15.573333 0-30.933333-12.8-30.933334-28.416v-99.968c0-21.376 17.322667-38.741333 38.528-38.741334h113.834667c15.573333 0 28.202667 16.170667 28.202667 31.829334s-12.672 31.786667-28.245334 31.786666h-89.045333v75.093334c0 15.701333-16.768 28.416-32.341333 28.416z m-333.397334 72.96c-15.573333 0-30.378667-12.8-30.378666-28.416V475.306667H249.770667c-15.573333 0-29.098667-16.853333-29.098667-32.512s13.525333-31.146667 29.098667-31.146667H407.04a38.698667 38.698667 0 0 1 38.528 38.698667h-0.042667v142.933333c0 15.701333-17.322667 28.416-32.896 28.416zM267.008 43.861333a95.701333 95.701333 0 0 1 135.722667 0 96.853333 96.853333 0 0 1 0 136.533334 95.701333 95.701333 0 0 1-135.722667 0 96.853333 96.853333 0 0 1 0-136.533334zM616.661333 43.861333a95.701333 95.701333 0 0 1 135.765334 0 96.853333 96.853333 0 0 1 0 136.533334 95.701333 95.701333 0 0 1-135.765334 0 96.853333 96.853333 0 0 1 0-136.533334z"  horiz-adv-x="1024" />
      
      <glyph glyph-name="on" unicode="&#59009;" d="M512 810.666667c235.648 0 426.666667-191.018667 426.666667-426.666667s-191.018667-426.666667-426.666667-426.666667S85.333333 148.352 85.333333 384 276.352 810.666667 512 810.666667z m225.109333-257.450667c-111.573333-39.68-210.858667-110.165333-287.402666-204.032-49.664 45.226667-101.546667 71.125333-166.314667 83.114667-25.002667 4.650667-37.973333-30.122667-16.597333-44.501334 59.477333-40.021333 105.472-87.893333 144-149.973333 20.053333-32.341333 65.066667-32.725333 85.589333-0.768 71.253333 110.762667 155.221333 198.485333 261.12 272.853333 22.613333 15.786667 5.333333 52.48-20.394667 43.306667z"  horiz-adv-x="1024" />
      
      <glyph glyph-name="service" unicode="&#59010;" d="M512 749.714286c228.278857 0 414.646857-174.116571 420.425143-391.899429L932.571429 347.428571h-73.142858c0 181.394286-155.172571 329.142857-347.428571 329.142858-188.891429 0-341.942857-142.628571-347.282286-319.634286L164.571429 347.428571h-73.142858C91.428571 570.002286 280.137143 749.714286 512 749.714286zM512 621.714286a292.571429 292.571429 0 1 0 0-585.142857 292.571429 292.571429 0 0 0 0 585.142857z m160.914286-360.813715a27.428571 27.428571 0 0 1-37.814857-8.557714c-23.076571-36.571429-71.716571-60.342857-123.099429-60.342857-52.955429 0-100.315429 22.930286-122.88 59.977143a27.428571 27.428571 0 0 1-46.811429-28.525714c33.206857-54.601143 98.742857-86.308571 169.691429-86.308572 69.302857 0 135.753143 32.475429 169.472 85.942857a27.428571 27.428571 0 0 1-8.557714 37.814857zM100.534857 418.011429l9.142857 0.329142a54.857143 54.857143 0 0 0 56.722286-52.918857l5.12-146.176a18.285714 18.285714 0 0 0-17.664-18.944l-45.677714-1.572571a64 64 0 0 0-66.194286 61.732571l-3.181714 91.355429a64 64 0 0 0 61.732571 66.194286zM923.355429 418.011429l-9.142858 0.329142a54.857143 54.857143 0 0 1-56.722285-52.918857l-5.12-146.176a18.285714 18.285714 0 0 1 17.664-18.944l45.677714-1.572571a64 64 0 0 1 66.194286 61.732571l3.181714 91.355429a64 64 0 0 1-61.732571 66.194286z"  horiz-adv-x="1024" />
      
    </font>
</defs>
</svg>
